<svg width="401" height="95" viewBox="0 0 401 95" fill="none" xmlns="http://www.w3.org/2000/svg">
<path d="M33.2775 0H39.6826V26.5969H33.2775V0Z" fill="#4361EE"/>
<path d="M11.3104 5.16056H17.7154V26.5969H11.3104V5.16056Z" fill="#4361EE"/>
<path d="M41.7413 3.01757H48.1464V26.5969H41.7413V3.01757Z" fill="#4361EE"/>
<path d="M50.0726 5.16056H56.4776V26.5969H50.0726V5.16056Z" fill="#4361EE"/>
<path d="M19.8232 54.3521H26.2283V86.7407H19.8232V54.3521Z" fill="#4361EE"/>
<path d="M28.0517 62.4934H34.4567V94.8821H28.0517V62.4934Z" fill="#4361EE"/>
<path d="M11.3104 54.3521H17.7154V77.8372H11.3104V54.3521Z" fill="#4361EE"/>
<path d="M2.64653 63.2556H9.05156V86.7407H2.64653V63.2556Z" fill="#4361EE"/>
<path d="M36.7155 62.4934H43.1205V94.8821H36.7155V62.4934Z" fill="#4361EE"/>
<path d="M44.9439 71.0334H51.3489V94.8821H44.9439V71.0334Z" fill="#4361EE"/>
<path d="M41.7904 37.272H48.1954V60.7571H41.7904V37.272Z" fill="#4361EE"/>
<path d="M53.6077 79.5735H60.0128V94.8821H53.6077V79.5735Z" fill="#4361EE"/>
<path d="M19.8232 20.1919H26.2283V43.677H19.8232V20.1919Z" fill="#4361EE"/>
<path d="M33.2775 37.272H39.6826V60.7571H33.2775V37.272Z" fill="#4361EE"/>
<path d="M19.8232 26.5969V20.1919H39.6826V26.5969L19.8232 26.5969Z" fill="#4361EE"/>
<path d="M19.8232 18.4556V12.0506H32.0162V18.4556H19.8232Z" fill="#4361EE"/>
<path d="M19.8232 10.3143V3.90924H32.0162V10.3143H19.8232Z" fill="#4361EE"/>
<path d="M50.0726 26.5969V20.1919H69.9319V26.5969L50.0726 26.5969Z" fill="#4361EE"/>
<path d="M19.8232 43.677V37.272H39.6826V43.677H19.8232Z" fill="#4361EE"/>
<path d="M28.3361 35.137V28.7319H71.8091V35.137H28.3361Z" fill="#4361EE"/>
<path d="M1.67974 35.137V28.7319H17.7154V35.137H1.67974Z" fill="#4361EE"/>
<path d="M3.93131 26.5969V20.1919H17.7154V26.5969L3.93131 26.5969Z" fill="#4361EE"/>
<path d="M0 43.677V37.272H17.7154V43.677H0Z" fill="#4361EE"/>
<path d="M0 52.2171V45.812H31.3567V52.2171H0Z" fill="#4361EE"/>
<path d="M0 60.7571V54.3521H17.7154V60.7571H0Z" fill="#4361EE"/>
<path d="M8.51282 94.8821V88.477H26.2283V94.8821H8.51282Z" fill="#4361EE"/>
<path d="M11.3104 86.7407V80.3357H26.2283L26.2283 86.7407H11.3104Z" fill="#4361EE"/>
<path d="M50.0726 43.677V37.272H75.6661V43.677H50.0726Z" fill="#4361EE"/>
<path d="M50.0726 52.2171V45.812H75.6661V52.2171H50.0726Z" fill="#4361EE"/>
<path d="M50.0726 60.7571V54.3521H73.807V60.7571H50.0726Z" fill="#4361EE"/>
<path d="M19.8232 60.7571V54.3521H39.6826V60.7571H19.8232Z" fill="#4361EE"/>
<path d="M36.7155 68.8984V62.4934H56.5748V68.8984H36.7155Z" fill="#4361EE"/>
<path d="M44.9929 77.4384V71.0334H70.8411V77.4384H44.9929Z" fill="#4361EE"/>
<path d="M53.6077 85.5798V79.1747H70.8411V85.5798H53.6077Z" fill="#4361EE"/>
<path d="M58.105 68.8984V62.4934H72.9043V68.8984H58.105Z" fill="#4361EE"/>
<path d="M120.666 83.641C115.599 83.641 111.066 82.7744 107.066 81.041C103.133 79.3077 99.9995 76.7744 97.6661 73.441C95.3995 70.1077 94.2328 66.0744 94.1661 61.341H108.466C108.533 63.4077 109.066 65.2744 110.066 66.941C111.066 68.6077 112.433 69.941 114.166 70.941C115.966 71.8744 118.099 72.341 120.566 72.341C122.699 72.341 124.533 72.0077 126.066 71.341C127.666 70.6077 128.899 69.6077 129.766 68.341C130.633 67.0744 131.066 65.5744 131.066 63.841C131.066 61.841 130.566 60.1744 129.566 58.841C128.633 57.5077 127.299 56.3744 125.566 55.441C123.899 54.5077 121.933 53.6744 119.666 52.941C117.466 52.141 115.133 51.3077 112.666 50.441C107.133 48.641 102.899 46.241 99.9661 43.241C97.0995 40.241 95.6661 36.2744 95.6661 31.341C95.6661 27.141 96.6661 23.541 98.6661 20.541C100.733 17.541 103.566 15.241 107.166 13.641C110.766 12.041 114.866 11.241 119.466 11.241C124.199 11.241 128.333 12.0744 131.866 13.741C135.466 15.341 138.299 17.6744 140.366 20.741C142.499 23.8077 143.599 27.4077 143.666 31.541H129.266C129.199 30.0077 128.733 28.5744 127.866 27.241C127.066 25.841 125.933 24.741 124.466 23.941C122.999 23.0744 121.266 22.641 119.266 22.641C117.533 22.5744 115.933 22.841 114.466 23.441C113.066 24.041 111.933 24.941 111.066 26.141C110.266 27.2744 109.866 28.7077 109.866 30.441C109.866 32.1077 110.266 33.5077 111.066 34.641C111.933 35.7744 113.099 36.7744 114.566 37.641C116.033 38.441 117.766 39.2077 119.766 39.941C121.766 40.6077 123.933 41.3077 126.266 42.041C129.733 43.241 132.933 44.6744 135.866 46.341C138.799 47.941 141.133 50.041 142.866 52.641C144.599 55.241 145.466 58.6744 145.466 62.941C145.466 66.6077 144.499 70.0077 142.566 73.141C140.633 76.2744 137.833 78.8077 134.166 80.741C130.566 82.6744 126.066 83.641 120.666 83.641ZM154.015 82.441V12.441H200.015V23.341H167.515V41.641H197.015V52.141H167.515V71.541H200.015V82.441H154.015ZM209.316 82.441V12.441H232.716C240.849 12.441 247.549 13.9077 252.816 16.841C258.149 19.7077 262.083 23.7744 264.616 29.041C267.216 34.241 268.516 40.3744 268.516 47.441C268.516 54.5077 267.216 60.6744 264.616 65.941C262.083 71.141 258.183 75.2077 252.916 78.141C247.649 81.0077 240.916 82.441 232.716 82.441H209.316ZM222.816 70.841H232.016C237.749 70.841 242.249 69.9077 245.516 68.041C248.849 66.1744 251.216 63.5077 252.616 60.041C254.016 56.5077 254.716 52.3077 254.716 47.441C254.716 42.5077 254.016 38.3077 252.616 34.841C251.216 31.3077 248.849 28.6077 245.516 26.741C242.249 24.8744 237.749 23.941 232.016 23.941H222.816V70.841ZM267.925 82.441L293.525 12.441H308.825L334.325 82.441H320.025L301.125 27.841L282.125 82.441H267.925ZM279.225 66.541L282.825 56.041H318.425L321.925 66.541H279.225ZM336.923 82.441L359.023 46.941L336.623 12.441H352.223L367.623 36.341L381.723 12.441H396.923L375.023 47.541L397.523 82.441H381.923L366.423 58.141L352.223 82.441H336.923Z" fill="#4361EE"/>
</svg>
