<svg width="42" height="43" viewBox="0 0 42 43" fill="none" xmlns="http://www.w3.org/2000/svg">
<g clip-path="url(#clip0_1369_7807)">
<path fill-rule="evenodd" clip-rule="evenodd" d="M18.7754 11.2537L21.362 0.0683212L23.482 9.95422L27.4033 2.49865L24.9871 13.84L30.4084 8.72413L27.2436 14.7991L40.5153 10.0576L30.4725 19.3468L36.4513 19.3413L29.2832 21.6395L35.4624 25.5841L32.3625 25.3673L41.7149 33.6057L27.6678 28.7955L31.0093 34.1519L24.7922 29.7286L26.8248 36.8939L23.2702 31.8324L20.1541 42.6828L18.7495 31.4121L14.8661 37.4002L17.2328 29.6391L11.5996 35.2777L14.9776 28.1215L0.00390625 34.3984L11.6165 24.9709L4.58628 24.4692L13.4756 22.0167L5.61161 19.5381L11.9209 18.9515L3.33995 10.9392L13.7067 14.3729L10.6698 9.42444L17.0928 14.6784L16.2406 6.85826L18.7754 11.2537Z" fill="black"/>
<path fill-rule="evenodd" clip-rule="evenodd" d="M18.9275 12.2777L16.817 8.61839L17.5739 15.5657L12.1863 11.1589L14.5837 15.0651L4.88129 11.8515L12.8039 19.2489L7.52032 19.7403L14.8124 22.0387L6.80071 24.2487L12.5912 24.6624L2.25586 33.0529L15.7328 27.4033L12.8544 33.5019L18.0297 28.3215L16.001 34.9749L19.0022 30.3469L20.3064 40.8122L23.1338 30.9673L25.8476 34.8314L24.1332 28.7881L29.674 32.7303L26.7779 28.0878L40.0207 32.6225L31.2681 24.9124L33.9993 25.1035L28.4039 21.5313L34.0461 19.7223L29.5208 19.7265L38.93 11.0233L26.4779 15.4722L29.0636 10.5082L24.3753 14.9325L26.4766 5.06859L23.3317 11.0483L21.3491 1.80409L18.9275 12.2777Z" fill="#DD0000"/>
<path fill-rule="evenodd" clip-rule="evenodd" d="M18.1456 12.7042L18.6813 17.6224L15.7005 15.1839L16.6111 16.6681L8.45347 13.9661L14.8457 19.9346L11.946 20.2043L17.9083 22.0838L11.9374 23.7309L14.8462 23.9385L7.47949 29.919L17.4778 25.7278L15.7594 29.368L19.8706 25.2526L18.6271 29.3307L19.5782 27.8642L20.649 36.4573L22.8052 28.9499L23.5645 30.0312L22.5897 26.5951L26.5582 29.4187L24.6978 26.4364L36.0717 30.3312L28.7131 23.8492L30.5871 23.9802L26.3482 21.274L28.4436 20.6022L27.2967 20.6031L35.2331 13.2621L24.6864 17.0302L25.9268 14.6493L22.9415 17.4663L24.3114 11.0365L22.9707 13.5856L21.3082 5.83262L19.269 14.6519L18.1456 12.7042Z" fill="#FF6600"/>
<path fill-rule="evenodd" clip-rule="evenodd" d="M19.0605 15.5128L19.4447 19.0389L17.8238 17.7131L10.9072 15.4222L16.2498 20.4108L14.9855 20.5284L20.036 22.1202L15.4648 23.3812L16.3964 23.4477L11.0666 27.7748L18.6782 24.5841L17.7558 26.5379L21.1372 23.1532L20.0472 26.7282L20.8877 33.4756L22.409 28.1789L21.5347 25.0967L24.4243 27.1526L23.2746 25.3094L33.3659 28.7648L26.9637 23.1253L28.2498 23.2153L24.9416 21.1034L26.3938 20.6375L32.7007 14.8037L23.4611 18.1049L23.7785 17.4956L21.9615 19.2101L22.8295 15.1364L22.7268 15.3317L21.2836 8.60216L19.5066 16.2866L19.0605 15.5128Z" fill="#FFFF00"/>
<path fill-rule="evenodd" clip-rule="evenodd" d="M21.0336 25.1759L20.5527 26.7525L21.0821 31L21.8888 28.1909L21.0336 25.1759ZM21.3152 22.2761L17.22 23.4057L14.0336 25.9927L19.669 23.6304L19.4056 24.1877L21.3152 22.2761ZM19.7633 17.3602L20.0732 20.2046L17.5672 18.1549L12.9365 16.6208L17.3503 20.7421L21.5309 22.0589L22.1831 21.406L21.2996 24.3029L22.6545 25.2668L22.0929 24.367L31.1218 27.4612L25.5119 22.5191L26.3108 22.5751L23.7729 20.9552L26.1446 20.1948L30.5997 16.0741L23.1867 18.7226L21.1457 20.6477L22.245 15.4877L21.259 10.8891L19.7633 17.3602Z" fill="white"/>
<path fill-rule="evenodd" clip-rule="evenodd" d="M20.9345 10.434C27.5203 10.434 32.8592 15.7729 32.8592 22.3587C32.8592 28.9445 27.5203 34.2836 20.9345 34.2836C14.3486 34.2836 9.00977 28.9445 9.00977 22.3587C9.00977 15.7729 14.3486 10.434 20.9345 10.434Z" fill="black"/>
<path fill-rule="evenodd" clip-rule="evenodd" d="M20.9336 10.968C27.2247 10.968 32.3248 16.0681 32.3248 22.3594C32.3248 28.6507 27.2247 33.7508 20.9336 33.7508C14.6425 33.7508 9.54199 28.651 9.54199 22.3594C9.54199 16.0679 14.6419 10.968 20.9336 10.968Z" fill="#B27D2F"/>
<path fill-rule="evenodd" clip-rule="evenodd" d="M17.5622 11.4746C17.63 11.4526 17.6979 11.4337 17.7659 11.414C17.7935 11.4269 17.8168 11.4474 17.8332 11.4731C17.8496 11.4988 17.8583 11.5286 17.8583 11.5591V11.8621C19.0598 11.5095 25.149 10.0913 29.7457 15.9415C29.7719 15.9748 29.7838 16.0172 29.7787 16.0593C29.7737 16.1014 29.7522 16.1398 29.7189 16.166C29.6855 16.1921 29.6431 16.204 29.601 16.1989C29.5589 16.1938 29.5205 16.1723 29.4942 16.139C24.5216 9.81016 17.7696 12.2247 17.7501 12.2326L17.5381 12.3054V11.5593C17.5381 11.5294 17.5465 11.5001 17.5622 11.4748" fill="#FFFF00"/>
<path fill-rule="evenodd" clip-rule="evenodd" d="M15.7559 12.3104C15.7559 12.2894 15.76 12.2685 15.7681 12.2491C15.7761 12.2297 15.7879 12.212 15.8028 12.1972C15.8177 12.1823 15.8353 12.1705 15.8548 12.1625C15.8742 12.1545 15.895 12.1504 15.9161 12.1504C15.9585 12.1504 15.9992 12.1673 16.0292 12.1973C16.0592 12.2273 16.0761 12.268 16.0761 12.3104V14.2443C16.7713 13.9939 18.9938 13.2429 20.6073 13.2639C20.6282 13.2642 20.649 13.2685 20.6682 13.2768C20.6875 13.285 20.705 13.297 20.7196 13.312C20.7342 13.327 20.7458 13.3448 20.7535 13.3642C20.7613 13.3837 20.7652 13.4045 20.7649 13.4255C20.7643 13.4677 20.7471 13.508 20.7169 13.5375C20.6867 13.567 20.646 13.5833 20.6038 13.5828C18.7348 13.558 15.981 14.6202 15.9731 14.6233L15.7561 14.7063V12.3104H15.7559Z" fill="#FFFF00"/>
<path fill-rule="evenodd" clip-rule="evenodd" d="M16.7037 11.7787C16.7662 11.7537 16.8288 11.7295 16.8915 11.7056C16.924 11.716 16.9523 11.7365 16.9724 11.7642C16.9924 11.7918 17.003 11.8251 17.0028 11.8592V13.0632C18.1069 12.6554 23.1434 11.1047 27.5745 14.8386C27.5906 14.8521 27.6038 14.8685 27.6135 14.8871C27.6232 14.9057 27.6291 14.926 27.6309 14.9468C27.6327 14.9677 27.6304 14.9887 27.6241 15.0087C27.6177 15.0286 27.6076 15.0471 27.5941 15.0631C27.5668 15.0954 27.5279 15.1156 27.4858 15.1192C27.4437 15.1228 27.4019 15.1096 27.3696 15.0825C22.5194 10.9945 16.921 13.4365 16.9047 13.4444L16.6826 13.5383V11.8581C16.6828 11.8302 16.6904 11.8028 16.7046 11.7787" fill="#FFFF00"/>
<path fill-rule="evenodd" clip-rule="evenodd" d="M14.9189 12.7964C14.9189 12.7539 14.9358 12.7132 14.9658 12.6832C14.9958 12.6532 15.0365 12.6364 15.0789 12.6364C15.1214 12.6364 15.1621 12.6532 15.1921 12.6832C15.2221 12.7132 15.2389 12.7539 15.2389 12.7964V15.4102C16.3143 14.8314 20.7986 12.7599 25.6259 15.5469L25.706 15.593V27.1769C25.7059 27.2193 25.689 27.26 25.659 27.29C25.6289 27.32 25.5882 27.3369 25.5458 27.3369C25.5034 27.3368 25.4627 27.3199 25.4328 27.2899C25.4028 27.2599 25.386 27.2193 25.386 27.1769V15.7784C20.053 12.7575 15.1764 15.8127 15.1619 15.8223L14.9189 15.9716V12.7964Z" fill="#FFFF00"/>
<path fill-rule="evenodd" clip-rule="evenodd" d="M12.9578 14.2244C13 14.1834 13.0417 14.1421 13.084 14.1017C13.0939 14.0999 13.104 14.099 13.1141 14.0989C13.1565 14.0989 13.1973 14.1157 13.2273 14.1457C13.2573 14.1757 13.2742 14.2164 13.2743 14.2589V15.5346C13.2742 15.5771 13.2573 15.6178 13.2273 15.6478C13.1973 15.6778 13.1565 15.6946 13.1141 15.6946C13.0717 15.6945 13.031 15.6777 13.001 15.6477C12.971 15.6177 12.9542 15.577 12.9541 15.5346V14.2589C12.9541 14.2473 12.9554 14.2357 12.9578 14.2244Z" fill="#FFFF00"/>
<path fill-rule="evenodd" clip-rule="evenodd" d="M12.069 15.2079C12.1252 15.1384 12.1822 15.0694 12.24 15.0011C12.2805 15.004 12.3183 15.022 12.346 15.0517C12.3736 15.0813 12.389 15.1203 12.389 15.1609V16.2758C12.799 16.2758 13.8397 16.287 13.8397 16.4364C13.8397 16.4803 13.8177 16.5198 13.7776 16.5927C13.4756 17.1433 11.6472 20.4771 12.0407 23.2481H16.0431C16.0854 23.2481 16.1261 23.265 16.1561 23.2949C16.186 23.3249 16.2029 23.3655 16.2031 23.4078C16.2031 23.4289 16.199 23.4497 16.1909 23.4691C16.1829 23.4886 16.1711 23.5062 16.1563 23.5211C16.1414 23.536 16.1238 23.5478 16.1043 23.5559C16.0849 23.5639 16.0641 23.5681 16.0431 23.5681H11.7688L11.7469 23.4344C11.2548 20.5287 13.1837 17.0121 13.4982 16.439C13.5125 16.4131 13.5201 16.4753 13.5201 16.4364C13.5201 16.3133 12.2365 16.596 12.2328 16.596L12.0697 16.5995V15.2079H12.069Z" fill="#FFFF00"/>
<path fill-rule="evenodd" clip-rule="evenodd" d="M11.1761 16.4714C11.2031 16.4275 11.2307 16.3836 11.2582 16.3397C11.282 16.3265 11.3088 16.3196 11.3361 16.3195C11.3571 16.3196 11.3779 16.3237 11.3974 16.3318C11.4168 16.3399 11.4344 16.3517 11.4493 16.3666C11.4641 16.3815 11.4759 16.3992 11.4839 16.4187C11.492 16.4381 11.4961 16.4589 11.4961 16.48V17.1199H12.7207L12.5416 17.3727C12.5374 17.3785 11.0962 19.3938 11.1451 22.1921C11.1458 22.2344 11.1296 22.2752 11.1002 22.3056C11.0708 22.336 11.0305 22.3534 10.9882 22.3541C10.9673 22.3544 10.9465 22.3506 10.9271 22.3429C10.9076 22.3352 10.8899 22.3237 10.8748 22.3091C10.8598 22.2946 10.8478 22.2772 10.8395 22.258C10.8312 22.2388 10.8268 22.2181 10.8265 22.1972C10.7857 19.8838 11.7307 18.081 12.1189 17.4401H11.1752V16.4723L11.1761 16.4714Z" fill="#FFFF00"/>
<path fill-rule="evenodd" clip-rule="evenodd" d="M26.7595 32.1519C26.6537 32.215 26.5469 32.2763 26.4393 32.3358V31.9289C18.6786 36.0675 13.2384 30.2509 13.2224 30.234L12.9632 29.9634H14.1647V25.3126H10.2967L10.2673 25.1895C9.38946 21.5069 10.3601 19.0643 10.7308 18.3161H10.3419C10.3236 18.3162 10.3054 18.3131 10.2882 18.3069C10.3281 18.2027 10.3689 18.0989 10.4117 17.9959H11.2836L11.1348 18.2391C11.1302 18.2463 9.57425 20.7304 10.5504 24.9924H14.4849V30.2836H13.732C14.9287 31.375 19.8633 35.2257 26.5213 31.5223L26.7588 31.3906V32.1523L26.7595 32.1519Z" fill="#FFFF00"/>
<path fill-rule="evenodd" clip-rule="evenodd" d="M11.9405 29.3507C11.8586 29.2457 11.7786 29.139 11.7004 29.0308H13.2544V26.1867H10.2022C10.1644 26.0813 10.1283 25.975 10.0938 25.8679C10.1001 25.867 10.1066 25.8665 10.1131 25.8666H13.5746V29.3507H11.9405Z" fill="#FFFF00"/>
<path fill-rule="evenodd" clip-rule="evenodd" d="M11.3096 28.4573C11.2467 28.3578 11.1852 28.2573 11.1251 28.1557C11.1483 28.1436 11.1741 28.1372 11.2003 28.1371H12.3843V27.0442H10.5461C10.4987 26.9392 10.4533 26.833 10.4092 26.7264C10.4185 26.7248 10.428 26.7241 10.4375 26.7242H12.7048V28.4579H11.3096V28.4573Z" fill="#FFFF00"/>
<path fill-rule="evenodd" clip-rule="evenodd" d="M30.8466 16.7392C30.8916 16.8182 30.9355 16.8978 30.9783 16.9778C30.9643 17.0025 30.944 17.0231 30.9195 17.0374C30.895 17.0518 30.8671 17.0594 30.8387 17.0594H29.2011V21.5645H32.2988C32.3059 21.6708 32.3117 21.7775 32.3161 21.8847H28.8809V16.7392H30.8464H30.8466Z" fill="#FFFF00"/>
<path fill-rule="evenodd" clip-rule="evenodd" d="M32.0339 19.7983C32.0554 19.8916 32.0757 19.9852 32.0947 20.079C32.0665 20.1015 32.0316 20.1137 31.9955 20.1137H31.1082C31.0872 20.1137 31.0664 20.1095 31.047 20.1015C31.0275 20.0934 31.0099 20.0816 30.995 20.0667C30.9802 20.0519 30.9684 20.0342 30.9604 20.0148C30.9523 19.9953 30.9482 19.9745 30.9482 19.9535C30.9482 19.911 30.9651 19.8703 30.9951 19.8403C31.0251 19.8103 31.0658 19.7935 31.1082 19.7935H31.9955C32.0085 19.7935 32.0214 19.7951 32.0339 19.7983Z" fill="#FFFF00"/>
<path fill-rule="evenodd" clip-rule="evenodd" d="M31.3062 17.6428C31.3511 17.7414 31.395 17.8407 31.4379 17.9406C31.4131 17.9552 31.3848 17.9628 31.356 17.9626H30.0292V20.6889H32.2043C32.2189 20.7935 32.2329 20.8985 32.2462 21.0039C32.233 21.0073 32.2194 21.0091 32.2058 21.0091H29.709V17.6426H31.3067L31.3062 17.6428Z" fill="#FFFF00"/>
<path fill-rule="evenodd" clip-rule="evenodd" d="M27.6446 31.5616C27.5396 31.6381 27.4333 31.7131 27.3257 31.7867C27.3314 31.709 27.3273 30.8509 27.3246 30.3677C26.127 31.262 20.9537 34.6066 15.0547 30.6749L14.9834 30.6275V24.58C14.9834 24.559 14.9876 24.5382 14.9956 24.5188C15.0037 24.4993 15.0155 24.4817 15.0303 24.4668C15.0452 24.452 15.0629 24.4402 15.0823 24.4322C15.1018 24.4241 15.1226 24.42 15.1436 24.42C15.186 24.42 15.2267 24.4369 15.2567 24.4669C15.2867 24.4969 15.3036 24.5376 15.3036 24.58V30.4537C21.7997 34.7225 27.3628 29.9325 27.3791 29.9187L27.6383 29.6992L27.6416 30.0387C27.6416 30.0424 27.6473 31.0482 27.6446 31.5607" fill="#FFFF00"/>
<path fill-rule="evenodd" clip-rule="evenodd" d="M30.2877 28.8587C30.2131 28.9659 30.1369 29.0721 30.0591 29.1771C30.0317 29.1641 30.0086 29.1436 29.9924 29.1179C29.9763 29.0923 29.9677 29.0626 29.9678 29.0323V28.0342L29.9897 27.9966C29.9943 27.9887 31.5093 25.3433 31.5712 22.7734H28.3778C28.3567 22.7734 28.3359 22.7693 28.3165 22.7612C28.2971 22.7532 28.2794 22.7414 28.2646 22.7265C28.2497 22.7116 28.2379 22.694 28.2299 22.6745C28.2219 22.6551 28.2177 22.6343 28.2178 22.6132C28.2178 22.5708 28.2346 22.5301 28.2646 22.5001C28.2946 22.4701 28.3353 22.4532 28.3778 22.4532H31.8935V22.6134C31.8935 25.1359 30.4789 27.7708 30.2886 28.1147L30.2877 28.8587Z" fill="#FFFF00"/>
<path fill-rule="evenodd" clip-rule="evenodd" d="M29.4338 29.9395C29.3713 30.0093 29.308 30.0783 29.244 30.1467C29.2071 30.14 29.1737 30.1206 29.1496 30.0918C29.1256 30.0631 29.1124 30.0268 29.1123 29.9893V27.8201L29.1362 27.7811C29.1397 27.7751 30.3977 25.7234 30.618 23.7094H27.0908V15.1034L27.1395 15.0562L27.3575 14.8451C27.3878 14.8156 27.4287 14.7993 27.471 14.7999C27.5134 14.8005 27.5537 14.8178 27.5833 14.8482C27.6128 14.8785 27.6291 14.9194 27.6285 14.9617C27.6279 15.0041 27.6106 15.0444 27.5802 15.074L27.4108 15.2379V23.3892H30.9661L30.9523 23.5619C30.7956 25.5404 29.6135 27.5985 29.4316 27.9073L29.4338 29.9395Z" fill="#FFFF00"/>
<path fill-rule="evenodd" clip-rule="evenodd" d="M28.5694 30.8129C28.4645 30.9078 28.3574 31.0004 28.2492 31.091V27.4947L28.2749 27.4543C28.2782 27.4495 29.3395 25.8009 29.5769 24.5216H27.0127C26.9917 24.5216 26.9709 24.5175 26.9515 24.5095C26.932 24.5015 26.9144 24.4897 26.8995 24.4748C26.8846 24.46 26.8728 24.4423 26.8647 24.4229C26.8567 24.4035 26.8525 24.3827 26.8525 24.3616C26.8525 24.3406 26.8567 24.3198 26.8647 24.3004C26.8728 24.2809 26.8846 24.2633 26.8995 24.2484C26.9144 24.2336 26.932 24.2218 26.9515 24.2138C26.9709 24.2057 26.9917 24.2016 27.0127 24.2016H29.9452L29.9233 24.3809C29.7668 25.6341 28.745 27.3064 28.5701 27.5851L28.5694 30.8129Z" fill="#FFFF00"/>
<path fill-rule="evenodd" clip-rule="evenodd" d="M25.3323 30.1449C25.3499 30.1335 25.3696 30.1258 25.3903 30.1221C25.4109 30.1183 25.4321 30.1187 25.4526 30.1232C25.4731 30.1276 25.4925 30.1361 25.5098 30.1481C25.527 30.16 25.5417 30.1753 25.5531 30.1929C25.5759 30.2286 25.5837 30.2719 25.5747 30.3133C25.5656 30.3547 25.5406 30.3908 25.505 30.4137C25.4923 30.4216 21.1092 33.3016 15.9584 30.2706L15.8789 30.2241V21.8314H13.4648L13.4842 21.6545C13.4853 21.6453 13.8116 18.4739 15.318 16.4792L15.3375 16.4537L15.3658 16.4373C15.3812 16.428 20.7683 13.259 24.7498 16.0697L24.8179 16.1175V27.8243L24.7568 27.8726C24.7516 27.8763 22.9702 29.3142 20.3123 28.7785L20.1835 28.7524V19.2157H17.6482V19.7917H19.6388V27.2675C19.6388 27.2885 19.6346 27.3094 19.6266 27.3288C19.6185 27.3482 19.6067 27.3659 19.5918 27.3807C19.5769 27.3956 19.5593 27.4074 19.5398 27.4154C19.5204 27.4234 19.4996 27.4275 19.4786 27.4275C19.4575 27.4275 19.4367 27.4234 19.4173 27.4154C19.3978 27.4074 19.3802 27.3956 19.3653 27.3807C19.3504 27.3659 19.3386 27.3482 19.3305 27.3288C19.3225 27.3094 19.3183 27.2885 19.3183 27.2675V20.1119H17.3283V18.8955H20.503V28.4901C22.668 28.877 24.1814 27.8952 24.4972 27.6672V16.2847C20.8482 13.7846 15.9661 16.4627 15.5537 16.6971C14.3214 18.3486 13.9143 20.8324 13.8228 21.5112H16.1993V30.0413C21.1438 32.8956 25.3198 30.1526 25.3318 30.1449" fill="#FFFF00"/>
<path fill-rule="evenodd" clip-rule="evenodd" d="M26.2169 27.64C26.2508 27.6145 26.2934 27.6035 26.3354 27.6094C26.3774 27.6153 26.4153 27.6376 26.4409 27.6713C26.4664 27.7052 26.4774 27.7478 26.4715 27.7898C26.4657 27.8317 26.4434 27.8697 26.4096 27.8952C26.397 27.9049 22.1252 31.1858 18.3595 29.4771L18.1301 29.9096C18.857 30.2608 22.4167 31.6484 27.3412 27.9586V27.2498L27.3699 27.2081C27.3726 27.2046 28.1819 26.0396 28.3937 25.3646H26.9385C26.9174 25.3646 26.8966 25.3604 26.8772 25.3524C26.8578 25.3443 26.8401 25.3325 26.8253 25.3176C26.8104 25.3028 26.7986 25.2851 26.7906 25.2657C26.7826 25.2462 26.7784 25.2254 26.7785 25.2044C26.7785 25.1619 26.7953 25.1213 26.8253 25.0912C26.8553 25.0612 26.896 25.0444 26.9385 25.0444H28.7798L28.7536 25.2268C28.6643 25.8524 27.8275 27.1038 27.6614 27.3479V28.118L27.5975 28.1665C21.8643 32.5035 17.8459 30.1227 17.8343 30.1162L17.7002 30.0393L17.7726 29.9028L18.1477 29.1942L18.2201 29.0575L18.3592 29.1255C21.9804 30.895 26.2048 27.6496 26.216 27.6402" fill="#FFFF00"/>
<path fill-rule="evenodd" clip-rule="evenodd" d="M14.8755 20.6424C14.8687 20.6623 14.8581 20.6806 14.8443 20.6964C14.8304 20.7122 14.8136 20.7251 14.7948 20.7343C14.7759 20.7436 14.7555 20.7491 14.7345 20.7504C14.7136 20.7518 14.6926 20.749 14.6727 20.7422C14.6528 20.7355 14.6345 20.7249 14.6187 20.7111C14.603 20.6973 14.5901 20.6805 14.5808 20.6617C14.5716 20.6428 14.5661 20.6224 14.5648 20.6014C14.5634 20.5805 14.5663 20.5595 14.5731 20.5397C14.575 20.5331 15.377 18.1585 16.1078 17.0783L16.1345 17.0386L16.1784 17.0202C16.1933 17.0138 21.4508 14.8124 23.8688 16.6019L23.9347 16.6499V27.2653L23.6871 27.1034L22.8273 26.5407L22.7546 26.493V18.297H22.2154V26.6249C22.2153 26.6673 22.1985 26.708 22.1685 26.738C22.1385 26.768 22.0978 26.7849 22.0554 26.7849C22.013 26.7849 21.9722 26.7681 21.9422 26.7381C21.9122 26.7081 21.8953 26.6674 21.8952 26.6249V17.9768H23.075V26.3199L23.6147 26.673V16.8126C21.4363 15.3031 16.8438 17.0957 16.3465 17.2969C15.646 18.3606 14.8777 20.6356 14.8761 20.6424" fill="#FFFF00"/>
<path fill-rule="evenodd" clip-rule="evenodd" d="M27.7256 14.7221C27.7667 14.7221 27.8073 14.7301 27.8453 14.7458C27.8832 14.7615 27.9177 14.7845 27.9467 14.8136C27.9758 14.8426 27.9988 14.8771 28.0145 14.915C28.0302 14.9529 28.0383 14.9936 28.0383 15.0346C28.0383 15.1176 28.0054 15.1971 27.9467 15.2558C27.8881 15.3144 27.8085 15.3474 27.7256 15.3474C27.6845 15.3474 27.6439 15.3393 27.606 15.3236C27.568 15.3078 27.5336 15.2848 27.5045 15.2558C27.4755 15.2267 27.4525 15.1922 27.4368 15.1543C27.4211 15.1163 27.4131 15.0757 27.4131 15.0346C27.4131 14.9936 27.4211 14.9529 27.4368 14.915C27.4525 14.8771 27.4755 14.8426 27.5046 14.8136C27.5336 14.7846 27.568 14.7615 27.606 14.7458C27.6439 14.7301 27.6846 14.7221 27.7256 14.7221Z" fill="#FFFF00"/>
<path fill-rule="evenodd" clip-rule="evenodd" d="M29.0381 16.5894C29.0792 16.5894 29.1198 16.5975 29.1578 16.6131C29.1957 16.6288 29.2302 16.6519 29.2592 16.6809C29.2883 16.7099 29.3113 16.7444 29.327 16.7823C29.3427 16.8202 29.3508 16.8609 29.3508 16.9019C29.3509 16.9431 29.3429 16.9838 29.3273 17.0219C29.3116 17.0599 29.2886 17.0945 29.2595 17.1236C29.2305 17.1528 29.196 17.1759 29.158 17.1917C29.12 17.2074 29.0792 17.2156 29.0381 17.2156C28.9552 17.2155 28.8757 17.1825 28.8171 17.1239C28.7585 17.0652 28.7256 16.9857 28.7256 16.9028C28.7256 16.8199 28.7585 16.7404 28.8171 16.6818C28.8757 16.6232 28.9552 16.5903 29.0381 16.5903" fill="#FFFF00"/>
<path fill-rule="evenodd" clip-rule="evenodd" d="M30.7852 19.6608C30.8681 19.6608 30.9477 19.6938 31.0063 19.7524C31.065 19.8111 31.0979 19.8906 31.0979 19.9736C31.0979 20.0565 31.065 20.1361 31.0063 20.1947C30.9477 20.2534 30.8681 20.2863 30.7852 20.2863C30.7023 20.2862 30.6228 20.2533 30.5642 20.1946C30.5056 20.136 30.4727 20.0565 30.4727 19.9736C30.4727 19.8907 30.5056 19.8112 30.5642 19.7525C30.6228 19.6939 30.7023 19.6609 30.7852 19.6608Z" fill="#FFFF00"/>
<path fill-rule="evenodd" clip-rule="evenodd" d="M28.1758 22.2703C28.2587 22.2703 28.3382 22.3032 28.3969 22.3618C28.4555 22.4204 28.4885 22.4999 28.4885 22.5828C28.4885 22.6658 28.4556 22.7453 28.3969 22.8039C28.3383 22.8626 28.2587 22.8955 28.1758 22.8955C28.1347 22.8955 28.0941 22.8875 28.0562 22.8717C28.0182 22.856 27.9838 22.833 27.9547 22.8039C27.9257 22.7749 27.9027 22.7404 27.887 22.7025C27.8713 22.6645 27.8633 22.6239 27.8633 22.5828C27.8633 22.4999 27.8962 22.4204 27.9548 22.3618C28.0134 22.3032 28.0929 22.2703 28.1758 22.2703Z" fill="#FFFF00"/>
<path fill-rule="evenodd" clip-rule="evenodd" d="M28.5986 24.8912C28.6397 24.8911 28.6804 24.8992 28.7183 24.9149C28.7562 24.9306 28.7907 24.9536 28.8198 24.9826C28.8488 25.0116 28.8719 25.0461 28.8876 25.084C28.9033 25.1219 28.9114 25.1626 28.9114 25.2037C28.9114 25.2447 28.9033 25.2854 28.8876 25.3233C28.8719 25.3612 28.8488 25.3957 28.8198 25.4247C28.7907 25.4537 28.7562 25.4768 28.7183 25.4925C28.6804 25.5081 28.6397 25.5162 28.5986 25.5162C28.5158 25.5162 28.4363 25.4833 28.3777 25.4246C28.3191 25.366 28.2861 25.2865 28.2861 25.2037C28.2861 25.1208 28.3191 25.0413 28.3777 24.9827C28.4363 24.9241 28.5158 24.8912 28.5986 24.8912Z" fill="#FFFF00"/>
<path fill-rule="evenodd" clip-rule="evenodd" d="M26.3782 27.384C26.4192 27.3839 26.4598 27.392 26.4978 27.4077C26.5357 27.4234 26.5702 27.4464 26.5992 27.4754C26.6283 27.5044 26.6513 27.5388 26.667 27.5767C26.6828 27.6146 26.6909 27.6552 26.6909 27.6963C26.6909 27.7373 26.6829 27.778 26.6672 27.816C26.6514 27.8539 26.6284 27.8884 26.5994 27.9175C26.5703 27.9465 26.5358 27.9696 26.4979 27.9853C26.4599 28.001 26.4192 28.009 26.3782 28.009C26.2952 28.009 26.2157 27.9761 26.157 27.9174C26.0984 27.8588 26.0654 27.7792 26.0654 27.6963C26.0655 27.6134 26.0985 27.534 26.1572 27.4754C26.2158 27.4169 26.2953 27.384 26.3782 27.384Z" fill="#FFFF00"/>
<path fill-rule="evenodd" clip-rule="evenodd" d="M25.6875 29.8368C25.7704 29.8368 25.8499 29.8698 25.9086 29.9284C25.9672 29.9871 26.0002 30.0666 26.0002 30.1495C26.0003 30.1906 25.9922 30.2313 25.9765 30.2692C25.9608 30.3072 25.9378 30.3417 25.9087 30.3707C25.8797 30.3997 25.8452 30.4228 25.8072 30.4385C25.7693 30.4542 25.7286 30.4623 25.6875 30.4622C25.6465 30.4622 25.6058 30.4541 25.5679 30.4384C25.5299 30.4227 25.4955 30.3997 25.4665 30.3706C25.4374 30.3416 25.4144 30.3071 25.3987 30.2692C25.383 30.2312 25.375 30.1906 25.375 30.1495C25.375 30.0666 25.4079 29.9871 25.4665 29.9284C25.5251 29.8698 25.6046 29.8368 25.6875 29.8368Z" fill="#FFFF00"/>
<path fill-rule="evenodd" clip-rule="evenodd" d="M14.3213 29.8093C14.3624 29.8093 14.403 29.8174 14.4409 29.8331C14.4789 29.8488 14.5133 29.8719 14.5424 29.9009C14.5714 29.93 14.5944 29.9645 14.6101 30.0024C14.6258 30.0403 14.6338 30.081 14.6338 30.1221C14.6338 30.2049 14.6009 30.2844 14.5423 30.343C14.4837 30.4016 14.4042 30.4346 14.3213 30.4346C14.2384 30.4346 14.1589 30.4016 14.1003 30.343C14.0417 30.2844 14.0088 30.2049 14.0088 30.1221C14.0088 30.081 14.0168 30.0403 14.0325 30.0024C14.0482 29.9645 14.0712 29.93 14.1002 29.9009C14.1293 29.8719 14.1637 29.8488 14.2017 29.8331C14.2396 29.8174 14.2802 29.8093 14.3213 29.8093Z" fill="#FFFF00"/>
<path fill-rule="evenodd" clip-rule="evenodd" d="M15.1399 23.9604C15.181 23.9604 15.2217 23.9684 15.2596 23.9842C15.2976 23.9999 15.332 24.023 15.3611 24.052C15.3901 24.0811 15.4132 24.1156 15.4289 24.1536C15.4446 24.1915 15.4526 24.2322 15.4526 24.2733C15.4526 24.3562 15.4196 24.4357 15.3609 24.4943C15.3023 24.5529 15.2228 24.5858 15.1399 24.5858C15.057 24.5858 14.9775 24.5529 14.9188 24.4943C14.8602 24.4357 14.8272 24.3562 14.8271 24.2733C14.8271 24.2322 14.8352 24.1915 14.8509 24.1536C14.8666 24.1156 14.8896 24.0811 14.9187 24.052C14.9477 24.023 14.9822 23.9999 15.0202 23.9842C15.0581 23.9684 15.0988 23.9604 15.1399 23.9604Z" fill="#FFFF00"/>
<path fill-rule="evenodd" clip-rule="evenodd" d="M10.9827 22.1159C11.0655 22.116 11.145 22.1489 11.2036 22.2075C11.2622 22.2661 11.2951 22.3456 11.2952 22.4284C11.2952 22.4695 11.2871 22.5101 11.2714 22.5481C11.2557 22.586 11.2327 22.6205 11.2037 22.6496C11.1747 22.6786 11.1402 22.7016 11.1023 22.7174C11.0644 22.7331 11.0237 22.7412 10.9827 22.7412C10.9416 22.7412 10.9009 22.7331 10.8629 22.7174C10.825 22.7017 10.7905 22.6787 10.7614 22.6496C10.7324 22.6206 10.7094 22.5861 10.6937 22.5481C10.678 22.5102 10.6699 22.4695 10.6699 22.4284C10.67 22.3455 10.703 22.266 10.7616 22.2074C10.8202 22.1488 10.8998 22.1159 10.9827 22.1159Z" fill="#FFFF00"/>
<path fill-rule="evenodd" clip-rule="evenodd" d="M14.6397 20.4681C14.6807 20.4681 14.7214 20.4762 14.7594 20.4919C14.7973 20.5076 14.8318 20.5306 14.8609 20.5597C14.8899 20.5887 14.9129 20.6232 14.9287 20.6612C14.9444 20.6991 14.9524 20.7398 14.9524 20.7809C14.9523 20.8638 14.9194 20.9433 14.8607 21.0019C14.8021 21.0605 14.7226 21.0934 14.6397 21.0934C14.5568 21.0934 14.4773 21.0605 14.4187 21.0019C14.3601 20.9433 14.3271 20.8638 14.3271 20.7809C14.3271 20.7398 14.3352 20.6992 14.3509 20.6612C14.3666 20.6233 14.3896 20.5888 14.4186 20.5598C14.4476 20.5307 14.4821 20.5077 14.52 20.492C14.558 20.4762 14.5986 20.4681 14.6397 20.4681Z" fill="#FFFF00"/>
<path fill-rule="evenodd" clip-rule="evenodd" d="M19.4805 19.6391C19.5634 19.6391 19.6429 19.672 19.7015 19.7306C19.7601 19.7893 19.793 19.8687 19.793 19.9516C19.793 19.9927 19.785 20.0333 19.7693 20.0713C19.7536 20.1092 19.7306 20.1437 19.7015 20.1728C19.6725 20.2018 19.6381 20.2248 19.6001 20.2406C19.5622 20.2563 19.5215 20.2644 19.4805 20.2644C19.3976 20.2643 19.3181 20.2313 19.2595 20.1727C19.2009 20.114 19.168 20.0345 19.168 19.9516C19.168 19.8688 19.201 19.7893 19.2596 19.7307C19.3182 19.6721 19.3976 19.6392 19.4805 19.6391Z" fill="#FFFF00"/>
<path fill-rule="evenodd" clip-rule="evenodd" d="M12.3428 16.9672C12.4257 16.9672 12.5052 17.0001 12.5638 17.0587C12.6225 17.1173 12.6555 17.1968 12.6555 17.2797C12.6555 17.3627 12.6225 17.4422 12.5639 17.5008C12.5052 17.5594 12.4257 17.5924 12.3428 17.5925C12.2599 17.5924 12.1804 17.5594 12.1218 17.5008C12.0632 17.4422 12.0303 17.3626 12.0303 17.2797C12.0302 17.2387 12.0383 17.198 12.0539 17.16C12.0696 17.122 12.0926 17.0875 12.1216 17.0585C12.1507 17.0294 12.1851 17.0063 12.2231 16.9906C12.261 16.9749 12.3017 16.9668 12.3428 16.9668" fill="#FFFF00"/>
<path fill-rule="evenodd" clip-rule="evenodd" d="M20.9016 13.0583C20.9845 13.0583 21.0639 13.0912 21.1226 13.1498C21.1812 13.2083 21.2142 13.2878 21.2143 13.3706C21.2143 13.4536 21.1814 13.5331 21.1227 13.5918C21.0641 13.6504 20.9845 13.6834 20.9016 13.6834C20.8605 13.6834 20.8198 13.6753 20.7819 13.6596C20.7439 13.6439 20.7094 13.6209 20.6804 13.5918C20.6514 13.5628 20.6283 13.5283 20.6126 13.4903C20.5969 13.4524 20.5888 13.4117 20.5889 13.3706C20.5889 13.3296 20.597 13.2889 20.6127 13.251C20.6284 13.2131 20.6514 13.1786 20.6805 13.1496C20.7095 13.1206 20.744 13.0976 20.782 13.082C20.8199 13.0663 20.8606 13.0583 20.9016 13.0583Z" fill="#FFFF00"/>
<path fill-rule="evenodd" clip-rule="evenodd" d="M22.9187 20.5645V19.3513C22.6033 19.1059 22.2895 18.8582 21.975 18.6121H19.7413C19.4266 18.8582 19.1128 19.1059 18.7976 19.3513V24.9456C19.1128 25.191 19.4266 25.4387 19.7413 25.6847H21.975C22.2895 25.4387 22.6033 25.191 22.9187 24.9456V24.7575H20.2963V20.5645H22.9187ZM17.6231 14.4195V11.8817H20.6078V14.4191H21.1101V11.8817H24.0937V14.4191H24.9814L25.1335 14.5387C26.0061 15.2236 26.8792 15.9078 27.7528 16.5913L27.9668 16.7594V27.5396L27.7528 27.708C26.8815 28.3931 26.0059 29.0721 25.1335 29.7558L24.9814 29.8754H24.0937V32.4128H21.1101V29.876H20.6078V32.4135H17.6231V29.876H16.7354L16.5837 29.7569C15.7111 29.073 14.8352 28.3938 13.964 27.7086L13.75 27.5403V16.7594L13.964 16.5913C14.8358 15.9057 15.7089 15.2215 16.5833 14.5387L16.7354 14.4191L17.6231 14.4195Z" fill="black"/>
<path fill-rule="evenodd" clip-rule="evenodd" d="M16.9343 29.3156H18.1883V31.853H20.0517V29.3156H21.6742V31.853H23.5377V29.3156H24.7917L27.411 27.268V21.125H20.8616V24.1975H23.4839V25.2202L22.1726 26.2453H19.5536L18.2425 25.2202V19.0772L19.5536 18.0523H22.1726L23.4839 19.0772V20.0999H27.411V17.0318L24.7917 14.9796H23.5377V12.442H21.6742V14.9796H20.0517V12.442H18.1883V14.9796H16.9343L14.3154 17.0318V27.268L16.9343 29.3156Z" fill="#00A651"/>
<path fill-rule="evenodd" clip-rule="evenodd" d="M25.4472 20.0999H27.4107V17.1249V17.0318L26.636 16.4248L24.7917 14.9796H23.5377V12.442H21.9014H21.6744V12.9178V14.9796H20.0517V12.442H19.333H18.1883V14.9796H16.9924H16.9343L15.9032 15.7875L15.7527 15.9055L14.3154 17.0318V21.9263V22.2921V27.2682L16.2787 26.2442V18.0547L18.2438 16.5159H18.5247H19.0688H23.4821L25.4472 18.0547V20.0999Z" fill="#005E2D"/>
<path fill-rule="evenodd" clip-rule="evenodd" d="M18.2372 25.2217L16.2734 26.2454L18.2385 27.7817H23.4768L25.4419 26.2454V22.6625L23.4784 24.199V25.2217L22.1673 26.2465H19.5483L18.2372 25.2217Z" fill="#005E2D"/>
<path fill-rule="evenodd" clip-rule="evenodd" d="M20.8604 22.6621L25.446 22.6619L27.4095 21.1257H20.8604V22.6621Z" fill="#005E2D"/>
</g>
<defs>
<clipPath id="clip0_1369_7807">
<rect width="42" height="42.75" fill="white"/>
</clipPath>
</defs>
</svg>
