<svg width="138" height="57" viewBox="0 0 138 57" fill="none" xmlns="http://www.w3.org/2000/svg">
<g clip-path="url(#clip0_693_1239)">
<path d="M18.4269 15.5273H15.52V19.3076H18.4269V15.5273Z" fill="white"/>
<path d="M33.7305 20.0795V22.4042H38.5303V24.862H31.5912V17.852H40.8477V15.5273H31.7606C30.3355 15.5273 29.1782 16.6831 29.1782 18.1098V24.6057C29.1782 26.0309 30.334 27.1881 31.7606 27.1881H40.8549V20.0795H33.729H33.7305Z" fill="white"/>
<path d="M15.5127 31.7631V38.259C15.5127 39.6841 16.6685 40.8414 18.0951 40.8414H27.1822V38.5168H17.9257V31.5067H24.6026V33.9646H20.0649V36.2892H27.1908V29.1807H18.0966C16.6714 29.1807 15.5141 30.3364 15.5141 31.7631H15.5127Z" fill="white"/>
<path d="M18.4269 23.4062H15.52V27.1864H18.4269V23.4062Z" fill="white"/>
<path d="M32.0851 36.2891H29.1782V40.8398H32.0851V36.2891Z" fill="white"/>
<path d="M40.8546 29.1807H37.9478V33.7314H40.8546V29.1807Z" fill="white"/>
<path d="M18.5947 21.3565L25.2137 27.1891H27.1893V25.2149L22.808 21.3579L27.1893 17.501V15.5268L25.2137 15.5254L18.5947 21.3565Z" fill="white"/>
<path d="M29.1841 29.1807V31.2446L38.7823 40.8428H40.8448V38.7804L31.2465 29.1807H29.1841Z" fill="white"/>
</g>
<path d="M70.7498 19.0473H73.0327V28.7623L82.1388 19.0473H84.929L77.8014 26.5809L85.4363 37.1836H82.773L76.2794 28.1535L73.0327 31.5778V37.1836H70.7498V19.0473ZM98.7752 24.5263C98.2425 21.939 96.1625 20.7214 93.4231 20.7214C89.111 20.7214 87.2846 24.7038 87.2846 28.1028C87.2846 31.5271 88.6036 35.5095 93.1694 35.5095C96.4162 35.5095 99.0796 33.1759 99.0796 29.7769H93.1694V27.7477H101.362V37.1836H99.8405L99.0796 34.6217H99.0288C97.6591 36.5241 95.9596 37.5387 93.1694 37.5387C87.8934 37.5387 85.0018 33.5817 85.0018 28.1028C85.0018 22.6492 88.4007 18.6922 93.4231 18.6922C98.0142 18.6922 100.424 21.0766 101.058 24.5263H98.7752ZM106.795 26.7838H116.105V28.813H106.795V35.1544H117.626V37.1836H104.513V19.0473H117.322V21.0766H106.795V26.7838ZM120.292 37.1836V19.0473H123.082L132.137 33.9876H132.188V19.0473H134.471V37.1836H131.681L122.625 22.2941H122.574V37.1836H120.292Z" fill="white"/>
<defs>
<clipPath id="clip0_693_1239">
<rect width="25.3419" height="25.3419" fill="white" transform="translate(15.5127 15.5127)"/>
</clipPath>
</defs>
</svg>
