<?xml version="1.0" encoding="UTF-8"?>
<svg version="1.1" xmlns="http://www.w3.org/2000/svg" width="548" height="130">
<path d="M0 0 C1.52243317 -0.01429802 1.52243317 -0.01429802 3.07562256 -0.02888489 C4.71316498 -0.02751778 4.71316498 -0.02751778 6.38378906 -0.02612305 C7.51335022 -0.03040817 8.64291138 -0.0346933 9.80670166 -0.03910828 C12.1972995 -0.04485104 14.58791482 -0.04535224 16.97851562 -0.04101562 C20.62172626 -0.03786574 24.26411691 -0.06128154 27.90722656 -0.08666992 C30.23274638 -0.08894403 32.55826836 -0.08964589 34.88378906 -0.08862305 C35.96738708 -0.09783279 37.05098511 -0.10704254 38.16741943 -0.11653137 C45.11792216 -0.07439948 51.39741576 0.35078865 56.95800781 4.9934082 C57.41304688 5.5812207 57.86808594 6.1690332 58.33691406 6.7746582 C58.81 7.3624707 59.28308594 7.9502832 59.77050781 8.5559082 C61.93435386 11.85034508 62.03311496 14.74288382 62.06054688 18.56884766 C62.07015442 19.65039627 62.07976196 20.73194489 62.08966064 21.8462677 C62.09391052 23.01501938 62.0981604 24.18377106 62.10253906 25.38793945 C62.10823914 26.59024704 62.11393921 27.79255463 62.11981201 29.03129578 C62.12926482 31.57749551 62.1357971 34.1237075 62.13964844 36.66992188 C62.14934928 40.56117153 62.18036906 44.45189203 62.21191406 48.34301758 C62.21844461 50.81632173 62.22369488 53.28962967 62.22753906 55.76293945 C62.23988586 56.92561844 62.25223267 58.08829742 62.26495361 59.28620911 C62.24691205 65.84495245 62.02725715 70.8454344 57.39941406 75.91918945 C52.96045751 79.37556447 50.07841337 80.39517273 44.52929688 80.45166016 C42.88178436 80.47091301 42.88178436 80.47091301 41.20098877 80.49055481 C39.41975616 80.50163521 39.41975616 80.50163521 37.60253906 80.51293945 C36.3804071 80.5210112 35.15827515 80.52908295 33.89910889 80.53739929 C31.31003234 80.55123949 28.72093754 80.56196192 26.13183594 80.56982422 C22.17900873 80.58702939 18.22701942 80.63091732 14.27441406 80.67504883 C11.75879521 80.68517646 9.24316925 80.69369234 6.72753906 80.70043945 C4.95845184 80.72670158 4.95845184 80.72670158 3.15362549 80.75349426 C-3.4789771 80.73602802 -7.8903934 80.55494207 -13.10058594 76.2746582 C-18.82551681 70.17899411 -18.82275537 63.726087 -18.72949219 55.70825195 C-18.73190414 54.51539078 -18.7343161 53.3225296 -18.73680115 52.09352112 C-18.7358251 49.58135643 -18.72248996 47.06916958 -18.69750977 44.55712891 C-18.66316232 40.72069006 -18.6768768 36.88655161 -18.69628906 33.05004883 C-18.68939116 30.60277344 -18.67971928 28.15550397 -18.66699219 25.70825195 C-18.67195206 24.56641953 -18.67691193 23.4245871 -18.68202209 22.24815369 C-18.58563567 15.70653392 -18.02560736 11.58136668 -14.10058594 6.2746582 C-9.66753448 2.17408561 -6.06629537 0.03137739 0 0 Z M-8.10058594 12.2746582 C-9.3504946 14.77447553 -9.24781731 16.50600651 -9.27758789 19.3034668 C-9.29042313 20.35150482 -9.30325836 21.39954285 -9.31648254 22.4793396 C-9.32386948 23.61577911 -9.33125641 24.75221863 -9.33886719 25.9230957 C-9.34693893 27.08716949 -9.35501068 28.25124329 -9.36332703 29.45059204 C-9.37717511 31.91699734 -9.38789401 34.38342186 -9.39575195 36.84985352 C-9.41298367 40.62723917 -9.45686705 44.40375414 -9.50097656 48.1809082 C-9.51110147 50.57413092 -9.5196182 52.96736109 -9.52636719 55.3605957 C-9.54387527 56.49298676 -9.56138336 57.62537781 -9.579422 58.79208374 C-9.57649643 59.84642609 -9.57357086 60.90076843 -9.57055664 61.98706055 C-9.57642288 62.913685 -9.58228912 63.84030945 -9.58833313 64.79501343 C-8.94729819 68.05395365 -7.65857742 69.22171789 -5.10058594 71.2746582 C-2.20170153 72.24095301 -0.34090285 72.40642696 2.67456055 72.41992188 C3.64244003 72.42630173 4.61031952 72.43268158 5.60752869 72.43925476 C6.6513118 72.44036758 7.69509491 72.44148041 8.77050781 72.44262695 C10.38131981 72.44761955 10.38131981 72.44761955 12.02467346 72.45271301 C14.29679943 72.45777775 16.56893284 72.46012148 18.84106445 72.45996094 C22.31962312 72.46214734 25.79786465 72.48030781 29.27636719 72.49926758 C31.48274631 72.50220158 33.68912694 72.50418633 35.89550781 72.50512695 C36.93726669 72.51231247 37.97902557 72.51949799 39.05235291 72.52690125 C40.02338455 72.52382462 40.9944162 72.52074799 41.99487305 72.51757812 C43.27369606 72.51971565 43.27369606 72.51971565 44.57835388 72.52189636 C47.14640017 72.24834937 48.72297805 71.65027697 50.89941406 70.2746582 C54.59322987 65.00942853 54.33622329 59.7998831 54.29785156 53.6184082 C54.30215683 52.08766663 54.30215683 52.08766663 54.30654907 50.52600098 C54.30858515 48.37434329 54.30308733 46.22266691 54.29052734 44.07104492 C54.27446769 40.78562869 54.29039208 37.50144262 54.30957031 34.21606445 C54.3075878 32.12100967 54.30374396 30.02595564 54.29785156 27.9309082 C54.30392426 26.95263062 54.30999695 25.97435303 54.31625366 24.96643066 C54.26196148 19.67782865 53.95830493 15.79876229 50.89941406 11.2746582 C47.64739651 9.1066465 46.71797537 9.0195986 42.95654297 9 C41.95184967 8.99046799 40.94715637 8.98093597 39.91201782 8.97111511 C38.82762421 8.97202652 37.74323059 8.97293793 36.62597656 8.97387695 C35.51008148 8.96959183 34.3941864 8.9653067 33.24447632 8.96089172 C30.88239216 8.95514514 28.5202903 8.95465056 26.15820312 8.95898438 C22.54559047 8.96213971 18.93380015 8.93870437 15.32128906 8.91333008 C13.02701926 8.91105666 10.73274726 8.91035379 8.43847656 8.91137695 C7.35813141 8.90216721 6.27778625 8.89295746 5.16470337 8.88346863 C-1.99913315 8.821955 -1.99913315 8.821955 -8.10058594 12.2746582 Z " fill="#FDFDFD" transform="translate(43.1005859375,23.725341796875)"/>
<path d="M0 0 C15.18 0 30.36 0 46 0 C46 2.97 46 5.94 46 9 C43.82217319 11.17782681 38.74896922 10.26089916 35.71484375 10.31640625 C34.78402481 10.33718735 33.85320587 10.35796844 32.8941803 10.37937927 C29.90869818 10.44497931 26.92312516 10.50380802 23.9375 10.5625 C21.91861024 10.6056753 19.8997298 10.64928925 17.88085938 10.69335938 C12.92066703 10.80067129 7.96038291 10.90190888 3 11 C2.67 13.64 2.34 16.28 2 19 C3.47424438 18.99214478 3.47424438 18.99214478 4.97827148 18.98413086 C8.66283235 18.96588102 12.3473893 18.95449573 16.03198242 18.94506836 C17.61955439 18.94007346 19.20712183 18.93327525 20.79467773 18.92456055 C38.47314868 18.83002327 38.47314868 18.83002327 45 20 C46.1898306 22.3796612 46.13349966 23.91485735 46.125 26.5625 C46.12886719 27.77099609 46.12886719 27.77099609 46.1328125 29.00390625 C46 31 46 31 45 32 C36.28427839 33.61026898 27.20265908 33.11445047 18.375 33.0625 C16.87890775 33.05747303 15.38281387 33.05291225 13.88671875 33.04882812 C10.25777781 33.03792185 6.62889973 33.02072382 3 33 C2.67 35.64 2.34 38.28 2 41 C3.22630127 40.98952637 4.45260254 40.97905273 5.71606445 40.96826172 C10.26144497 40.93208896 14.80681273 40.90910943 19.35229492 40.89013672 C21.32041564 40.88007293 23.28852138 40.86642066 25.2565918 40.84912109 C28.08385918 40.82488941 30.91092905 40.81352077 33.73828125 40.8046875 C34.61962234 40.79436493 35.50096344 40.78404236 36.40901184 40.77340698 C37.22963608 40.77325592 38.05026031 40.77310486 38.89575195 40.77294922 C39.61745071 40.768508 40.33914948 40.76406677 41.0827179 40.75949097 C43 41 43 41 46 43 C46.328125 45.34765625 46.328125 45.34765625 46.25 48.0625 C46.23453125 48.96097656 46.2190625 49.85945313 46.203125 50.78515625 C46 53 46 53 45 54 C33.98677786 54.98822532 22.92288926 55.16433774 11.875 54.8125 C10.46311401 54.78567139 10.46311401 54.78567139 9.02270508 54.75830078 C2.5663279 54.48169218 2.5663279 54.48169218 -0.1171875 52.19921875 C-1 50 -1 50 -1 46 C-3.01822917 45.83723958 -5.03645833 45.67447917 -7.0546875 45.51171875 C-9 45 -9 45 -11 42 C-11.1952426 39.4815546 -11.2801857 37.07649002 -11.265625 34.55859375 C-11.26753845 33.83511246 -11.2694519 33.11163116 -11.27142334 32.3662262 C-11.27278285 30.8389552 -11.26910274 29.31167255 -11.26074219 27.78442383 C-11.25002338 25.44260842 -11.26065291 23.10155742 -11.2734375 20.75976562 C-11.27211617 19.27603997 -11.26955432 17.79231479 -11.265625 16.30859375 C-11.26967346 15.60649277 -11.27372192 14.90439178 -11.27789307 14.18101501 C-11.22993553 9.22993553 -11.22993553 9.22993553 -9 7 C-6.34462628 6.43479997 -3.70855287 6.26211802 -1 6 C-0.67 4.02 -0.34 2.04 0 0 Z " fill="#FFFFFF" transform="translate(224,37)"/>
<path d="M0 0 C11.55 0 23.1 0 35 0 C35.495 2.97 35.495 2.97 36 6 C38.01822917 6.16276042 40.03645833 6.32552083 42.0546875 6.48828125 C44 7 44 7 46 10 C46.265625 12.41015625 46.265625 12.41015625 46.25 15.0625 C46.25773437 16.37927734 46.25773437 16.37927734 46.265625 17.72265625 C46 20 46 20 44 22 C41.34462628 22.56520003 38.70855287 22.73788198 36 23 C35.855625 24.299375 35.71125 25.59875 35.5625 26.9375 C35.125 30.875 35.125 30.875 34 32 C32.58672053 32.15620555 31.1664541 32.25056173 29.74609375 32.31640625 C28.89208984 32.35830078 28.03808594 32.40019531 27.15820312 32.44335938 C26.26037109 32.48267578 25.36253906 32.52199219 24.4375 32.5625 C23.08495117 32.62727539 23.08495117 32.62727539 21.70507812 32.69335938 C19.47021515 32.79978142 17.23523692 32.90179988 15 33 C14.26665571 36.97754128 14.26665571 36.97754128 14 41 C15.29417847 40.9685791 15.29417847 40.9685791 16.61450195 40.93652344 C19.8180751 40.86832098 23.02127816 40.81818686 26.2253418 40.78027344 C27.61153338 40.76016725 28.99764025 40.73287755 30.38354492 40.69824219 C32.37641906 40.64968775 34.36991389 40.62916028 36.36328125 40.609375 C38.16212769 40.5779541 38.16212769 40.5779541 39.99731445 40.54589844 C43 41 43 41 44.89526367 42.79785156 C46.48532149 45.96742537 46.32289502 48.51273377 46 52 C43.2267865 54.7732135 40.53897686 54.45764064 36.8125 54.625 C35.75675781 54.68192017 35.75675781 54.68192017 34.6796875 54.73999023 C27.45318699 55.09503555 20.23329639 55.093534 13 55 C13 54.34 13 53.68 13 53 C11.515 52.505 11.515 52.505 10 52 C10 50.02 10 48.04 10 46 C6.52852158 45.25042843 6.52852158 45.25042843 3 45 C2.9175 46.093125 2.835 47.18625 2.75 48.3125 C2 52 2 52 0.375 53.9375 C-2.96395831 55.43124451 -5.38824393 55.45967805 -9 55 C-11.11640972 52.87566136 -11.92519968 51.51694195 -12.35644531 48.53662109 C-12.34709961 47.62477051 -12.33775391 46.71291992 -12.328125 45.7734375 C-12.32361328 44.74919678 -12.31910156 43.72495605 -12.31445312 42.66967773 C-12.29318359 41.58243408 -12.27191406 40.49519043 -12.25 39.375 C-12.23904297 38.26519775 -12.22808594 37.15539551 -12.21679688 36.01196289 C-12.09287092 26.65757368 -11.66730424 17.33034316 -11 8 C-10.37351562 7.92523438 -9.74703125 7.85046875 -9.1015625 7.7734375 C-8.28429687 7.64195313 -7.46703125 7.51046875 -6.625 7.375 C-5.40683594 7.20097656 -5.40683594 7.20097656 -4.1640625 7.0234375 C-3.09285156 6.51683594 -3.09285156 6.51683594 -2 6 C-1.34 4.02 -0.68 2.04 0 0 Z M2 11 C1.94619422 13.79192205 1.90642331 16.5828141 1.875 19.375 C1.85824219 20.1690625 1.84148437 20.963125 1.82421875 21.78125 C1.80664527 23.85492015 1.89664832 25.92883241 2 28 C3.82915641 30.23845015 3.82915641 30.23845015 6.5 30.3125 C7.325 30.209375 8.15 30.10625 9 30 C11.29633824 26.55549263 11.54016485 24.06187717 12 20 C12.84763916 20.02356567 12.84763916 20.02356567 13.71240234 20.04760742 C16.26650023 20.10987045 18.82043871 20.14896136 21.375 20.1875 C22.26445312 20.21263672 23.15390625 20.23777344 24.0703125 20.26367188 C24.92109375 20.27333984 25.771875 20.28300781 26.6484375 20.29296875 C27.43395996 20.3086792 28.21948242 20.32438965 29.02880859 20.34057617 C29.67930176 20.22818604 30.32979492 20.1157959 31 20 C33.56687367 16.1496895 32.83288724 14.41430237 32 10 C28.04900072 9.9753015 24.09803126 9.95714077 20.14697266 9.94506836 C18.14093449 9.93755964 16.13491798 9.9248553 14.12890625 9.91210938 C12.87207031 9.90888672 11.61523438 9.90566406 10.3203125 9.90234375 C9.15773926 9.89710693 7.99516602 9.89187012 6.79736328 9.88647461 C4.04497808 9.80643717 4.04497808 9.80643717 2 11 Z " fill="#FFFFFF" transform="translate(290,37)"/>
<path d="M0 0 C7.59 0 15.18 0 23 0 C23.1440259 4.08930694 23.2869551 8.17863153 23.42724609 12.26806641 C23.47513121 13.65480662 23.52361769 15.04152621 23.57275391 16.42822266 C23.85078615 24.28688919 24.08438919 32.13539596 24 40 C28.48133574 40.72256829 28.48133574 40.72256829 33 41 C33 27.47 33 13.94 33 0 C36.96 0 40.92 0 45 0 C45.85032828 4.25164141 46.12884851 7.69499467 46.1328125 11.98828125 C46.13376923 12.65031052 46.13472595 13.31233978 46.13571167 13.99443054 C46.13638955 15.39041235 46.13456273 16.78639737 46.13037109 18.18237305 C46.12504291 20.29548409 46.13031615 22.4083801 46.13671875 24.52148438 C46.14408792 37.6430608 46.14408792 37.6430608 45 44 C42.95301586 46.04698414 38.69588759 45.70045693 36 46 C35.01 48.64 34.02 51.28 33 54 C30.64628886 54.1968999 28.2925305 54.38270974 25.9375 54.5625 C23.97103516 54.71912109 23.97103516 54.71912109 21.96484375 54.87890625 C18 55 18 55 11 54 C10.67 39.81 10.34 25.62 10 11 C7.36 11 4.72 11 2 11 C1.67 24.86 1.34 38.72 1 53 C-3.01063926 55.00531963 -4.67183871 55.28227139 -9 55 C-9.66 54.67 -10.32 54.34 -11 54 C-11.0505963 47.62796407 -11.08568957 41.2559797 -11.10986328 34.88378906 C-11.11993789 32.71482406 -11.13359798 30.54587269 -11.15087891 28.37695312 C-11.17506323 25.26428874 -11.18646832 22.15180349 -11.1953125 19.0390625 C-11.20563507 18.065065 -11.21595764 17.0910675 -11.22659302 16.08755493 C-11.22674408 15.18677216 -11.22689514 14.28598938 -11.22705078 13.35791016 C-11.231492 12.56293121 -11.23593323 11.76795227 -11.24050903 10.94888306 C-11 9 -11 9 -9 7 C-6.67724823 6.59952556 -4.34260643 6.2602896 -2 6 C-1.34 4.02 -0.68 2.04 0 0 Z " fill="#FFFFFF" transform="translate(158,37)"/>
<path d="M0 0 C0.84498047 -0.00128906 1.68996094 -0.00257812 2.56054688 -0.00390625 C3.44935547 -0.00003906 4.33816406 0.00382812 5.25390625 0.0078125 C6.13884766 0.00394531 7.02378906 0.00007813 7.93554688 -0.00390625 C8.78181641 -0.00261719 9.62808594 -0.00132813 10.5 0 C11.27915771 0.00112793 12.05831543 0.00225586 12.86108398 0.00341797 C14.81640625 0.1328125 14.81640625 0.1328125 16.81640625 1.1328125 C17.14640625 14.0028125 17.47640625 26.8728125 17.81640625 40.1328125 C20.12640625 40.1328125 22.43640625 40.1328125 24.81640625 40.1328125 C24.85399048 38.42182373 24.85399048 38.42182373 24.89233398 36.67626953 C24.98634918 32.45316909 25.08658412 28.23023541 25.1887207 24.00732422 C25.2320919 22.17793675 25.27376536 20.34850823 25.3137207 18.51904297 C25.37137043 15.89277764 25.4350799 13.2667194 25.5 10.640625 C25.51671249 9.81974396 25.53342499 8.99886292 25.55064392 8.15310669 C25.70253454 2.36055591 25.70253454 2.36055591 26.81640625 0.1328125 C28.27433509 0.07881514 29.73283337 0.04002073 31.19140625 0.0078125 C32.00351563 -0.01539063 32.815625 -0.03859375 33.65234375 -0.0625 C35.81640625 0.1328125 35.81640625 0.1328125 37.81640625 2.1328125 C38.01646927 5.12243353 38.09613548 8.017436 38.08203125 11.0078125 C38.08490143 12.32821533 38.08490143 12.32821533 38.08782959 13.67529297 C38.08919177 15.53808884 38.08549307 17.40089419 38.07714844 19.26367188 C38.06644932 22.12130986 38.07704257 24.97831916 38.08984375 27.8359375 C38.08852216 29.64323056 38.08595978 31.45052323 38.08203125 33.2578125 C38.08607971 34.11616699 38.09012817 34.97452148 38.09429932 35.85888672 C38.0463237 41.90289505 38.0463237 41.90289505 35.81640625 44.1328125 C33.1280124 44.40273156 30.52498689 44.22018607 27.81640625 44.1328125 C27.67203125 45.4321875 27.52765625 46.7315625 27.37890625 48.0703125 C26.94140625 52.0078125 26.94140625 52.0078125 25.81640625 53.1328125 C22.67817175 53.38247817 19.52591012 53.31803041 16.37890625 53.3203125 C15.49396484 53.33255859 14.60902344 53.34480469 13.69726562 53.35742188 C12.85099609 53.35935547 12.00472656 53.36128906 11.1328125 53.36328125 C10.35365479 53.36739014 9.57449707 53.37149902 8.77172852 53.37573242 C6.81640625 53.1328125 6.81640625 53.1328125 4.81640625 51.1328125 C4.64101189 48.19184513 4.5850825 45.34627901 4.62109375 42.40625 C4.62392365 41.54343414 4.62675354 40.68061829 4.62966919 39.79165649 C4.64088292 37.0302353 4.66598941 34.269136 4.69140625 31.5078125 C4.70143452 29.63802551 4.71056063 27.76823345 4.71875 25.8984375 C4.74082613 21.30977141 4.77536391 16.72134657 4.81640625 12.1328125 C2.4834585 12.09039527 0.14938058 12.09188313 -2.18359375 12.1328125 C-4.25355862 14.20277737 -3.39330945 18.61574248 -3.4296875 21.47265625 C-3.46262156 23.19206247 -3.49583328 24.91146338 -3.52929688 26.63085938 C-3.57677572 29.35437412 -3.62120247 32.07786667 -3.66040039 34.80151367 C-3.70001133 37.42129134 -3.75157959 40.04062241 -3.8046875 42.66015625 C-3.81310165 43.47790024 -3.82151581 44.29564423 -3.83018494 45.13816833 C-3.95692023 50.90613898 -3.95692023 50.90613898 -6.18359375 53.1328125 C-8.05859375 53.43359375 -8.05859375 53.43359375 -10.18359375 53.4453125 C-10.88484375 53.46207031 -11.58609375 53.47882813 -12.30859375 53.49609375 C-12.92734375 53.37621094 -13.54609375 53.25632813 -14.18359375 53.1328125 C-16.75497108 49.2757465 -16.45388544 46.10146577 -16.4140625 41.6328125 C-16.41360428 40.80072266 -16.41314606 39.96863281 -16.41267395 39.11132812 C-16.40965425 37.35285007 -16.40177634 35.59437463 -16.3894043 33.8359375 C-16.37116366 31.14313283 -16.36889457 28.45067247 -16.36914062 25.7578125 C-16.36422459 24.04947619 -16.3583959 22.34114221 -16.3515625 20.6328125 C-16.35044968 19.82650391 -16.34933685 19.02019531 -16.34819031 18.18945312 C-16.3203996 14.91861629 -16.22505113 12.25718463 -15.18359375 9.1328125 C-10.72859375 8.6378125 -10.72859375 8.6378125 -6.18359375 8.1328125 C-6.03921875 6.9984375 -5.89484375 5.8640625 -5.74609375 4.6953125 C-4.97696427 -0.17584087 -4.55495939 0.00660344 0 0 Z " fill="#FDFDFD" transform="translate(54.18359375,37.8671875)"/>
<path d="M0 0 C11.22 0 22.44 0 34 0 C34.66 1.98 35.32 3.96 36 6 C37.3921875 5.938125 37.3921875 5.938125 38.8125 5.875 C42 6 42 6 45 8 C46.78248759 13.90723094 46.22425019 20.39085735 46.25 26.5 C46.270625 27.72332031 46.29125 28.94664063 46.3125 30.20703125 C46.32023437 31.97626953 46.32023437 31.97626953 46.328125 33.78125 C46.34214355 35.3909668 46.34214355 35.3909668 46.35644531 37.03320312 C45.95073987 40.41000626 45.02189762 42.28826765 43 45 C40.27721265 45.94230308 37.91760113 45.85651142 35 46 C34.87625 46.94875 34.7525 47.8975 34.625 48.875 C34 52 34 52 32 54 C28.9957378 54.31374561 26.07511819 54.51564334 23.0625 54.625 C22.20527344 54.66149658 21.34804688 54.69799316 20.46484375 54.7355957 C17.97682179 54.83589644 15.48876473 54.92055477 13 55 C11.81277344 55.04253906 10.62554687 55.08507812 9.40234375 55.12890625 C2.40524984 55.27016656 2.40524984 55.27016656 -1 53 C-1.6875 49.375 -1.6875 49.375 -2 46 C-3.27875 45.87625 -4.5575 45.7525 -5.875 45.625 C-9.75 45.25 -9.75 45.25 -12 43 C-12.18732388 40.52563035 -12.25578801 38.16536625 -12.23046875 35.69140625 C-12.23001053 34.96888168 -12.22955231 34.24635712 -12.2290802 33.50193787 C-12.22605762 31.97287353 -12.21817111 30.44381228 -12.20581055 28.91479492 C-12.18759922 26.57524691 -12.18530057 24.23609575 -12.18554688 21.89648438 C-12.18062979 20.41145491 -12.17480064 18.92642814 -12.16796875 17.44140625 C-12.16685593 16.7413295 -12.1657431 16.04125275 -12.16459656 15.31996155 C-12.13488176 12.27387821 -11.97116574 9.91349722 -11 7 C-6.545 6.505 -6.545 6.505 -2 6 C-1.34 4.02 -0.68 2.04 0 0 Z M2 10 C-0.38475683 13.57713524 -0.18682405 14.94252213 -0.01171875 19.1640625 C0.03533203 20.36804688 0.08238281 21.57203125 0.13085938 22.8125 C0.19080078 24.070625 0.25074219 25.32875 0.3125 26.625 C0.36083984 27.89085938 0.40917969 29.15671875 0.45898438 30.4609375 C0.16017818 36.11374006 0.16017818 36.11374006 2 41 C4.14558827 41.08775605 6.29404421 41.10695219 8.44140625 41.09765625 C9.74658203 41.09443359 11.05175781 41.09121094 12.39648438 41.08789062 C13.7851569 41.07953401 15.17382877 41.07106905 16.5625 41.0625 C17.95507656 41.05748666 19.34765481 41.05292347 20.74023438 41.04882812 C24.1601987 41.03699434 27.58007844 41.0205088 31 41 C32.40912096 38.18175808 32.11183553 35.82748718 32.09765625 32.6796875 C32.09443359 31.42285156 32.09121094 30.16601562 32.08789062 28.87109375 C32.07951172 27.55238281 32.07113281 26.23367187 32.0625 24.875 C32.05748489 23.53515789 32.05292201 22.195314 32.04882812 20.85546875 C32.03701086 17.57026794 32.02053617 14.28515603 32 11 C27.41377653 8.70688826 21.03545627 9.76982463 16 9.75 C14.6903125 9.729375 13.380625 9.70875 12.03125 9.6875 C10.15953125 9.67976563 10.15953125 9.67976563 8.25 9.671875 C7.10015625 9.6625293 5.9503125 9.65318359 4.765625 9.64355469 C3.85296875 9.76118164 2.9403125 9.87880859 2 10 Z " fill="#FFFFFF" transform="translate(357,37)"/>
<path d="M0 0 C1.12571915 -0.00394272 2.25143829 -0.00788544 3.41127014 -0.01194763 C7.13132252 -0.0186591 10.85014737 0.01050875 14.57006836 0.04077148 C17.15408592 0.04502135 19.73810729 0.04735013 22.3221283 0.0478363 C27.73675032 0.0540033 33.1509332 0.07607808 38.56542969 0.11230469 C44.8224464 0.15405728 51.0791462 0.17162096 57.33629423 0.17492443 C63.36074119 0.17817881 69.3850687 0.19328925 75.40948296 0.21491814 C77.97117908 0.22380755 80.53288363 0.23053404 83.09459114 0.23507881 C86.6712781 0.24410527 90.24762392 0.26648234 93.82421875 0.29296875 C95.41789276 0.29396576 95.41789276 0.29396576 97.04376221 0.29498291 C98.01807693 0.30495804 98.99239166 0.31493317 99.99623108 0.32521057 C100.8414737 0.32986108 101.68671633 0.33451159 102.55757236 0.33930302 C105.08671829 0.62654377 106.69977935 1.24696014 108.84741211 2.59936523 C110.47260567 5.84975236 110.05316316 9.42819914 110.08569336 13.00170898 C110.09376511 13.83521378 110.10183685 14.66871857 110.1101532 15.52748108 C110.12399133 17.29189982 110.1347147 19.0563453 110.14257812 20.82080078 C110.15982293 23.52289182 110.20371335 26.22376929 110.24780273 28.92553711 C110.25792687 30.63841872 110.26644385 32.35131075 110.27319336 34.06420898 C110.29070145 34.87365463 110.30820953 35.68310028 110.32624817 36.51707458 C110.30441333 42.14531531 110.30441333 42.14531531 108.1236105 44.31203461 C105.49613015 45.79803685 103.96054807 45.98064467 100.95826721 45.99377441 C99.97553833 46.00512421 98.99280945 46.016474 97.9803009 46.02816772 C96.90850082 46.02523712 95.83670074 46.02230652 94.73242188 46.01928711 C93.59870148 46.02775665 92.46498108 46.0362262 91.29690552 46.04495239 C87.54409612 46.06837803 83.79169538 46.0693432 80.03881836 46.06811523 C77.43334284 46.07521328 74.8278689 46.08291175 72.22239685 46.09118652 C66.75907055 46.10579079 61.2958584 46.1063751 55.83251953 46.1003418 C49.52140761 46.09370043 43.21088006 46.11656948 36.89988667 46.15365553 C30.82364237 46.18806379 24.74767399 46.19468853 18.67133904 46.19056702 C16.08811642 46.19226247 13.5048864 46.20194552 10.92172432 46.2197113 C7.31127498 46.2418095 3.70224077 46.23224371 0.09179688 46.21459961 C-0.97797897 46.22786285 -2.04775482 46.2411261 -3.14994812 46.25479126 C-10.36670966 46.17271389 -10.36670966 46.17271389 -14.31492615 43.29223633 C-16.72393567 39.76212415 -16.87446996 36.76715987 -16.81665039 32.63061523 C-16.82143402 31.87268677 -16.82621765 31.1147583 -16.83114624 30.3338623 C-16.83453735 28.73695796 -16.8253899 27.13998345 -16.80444336 25.54321289 C-16.77765993 23.10592122 -16.80421096 20.67323331 -16.83618164 18.23608398 C-16.83287739 16.68008429 -16.82647084 15.12408745 -16.81665039 13.56811523 C-16.82677155 12.84402466 -16.8368927 12.11993408 -16.84732056 11.37390137 C-16.76672295 7.87498691 -16.29421403 5.80633149 -14.30918884 2.90550232 C-9.65515629 -0.49462244 -5.62774483 -0.07872654 0 0 Z M-9.15258789 5.59936523 C-11.1330325 9.25085222 -11.40988626 11.82746959 -11.41821289 16.00952148 C-11.42079102 17.24637695 -11.42336914 18.48323242 -11.42602539 19.75756836 C-11.41829102 21.04598633 -11.41055664 22.3344043 -11.40258789 23.66186523 C-11.41032227 24.95415039 -11.41805664 26.24643555 -11.42602539 27.57788086 C-11.42344727 28.81344727 -11.42086914 30.04901367 -11.41821289 31.32202148 C-11.41595703 32.45389893 -11.41370117 33.58577637 -11.41137695 34.75195312 C-11.36252489 37.80133134 -11.36252489 37.80133134 -9.15258789 40.59936523 C-7.22229041 41.04728148 -7.22229041 41.04728148 -4.96624756 40.96685791 C-3.64990074 40.97521164 -3.64990074 40.97521164 -2.30696106 40.98373413 C-1.34175034 40.97451935 -0.37653961 40.96530457 0.61791992 40.95581055 C2.14008873 40.95887711 2.14008873 40.95887711 3.69300842 40.96200562 C7.06236538 40.96502425 10.43123793 40.94649903 13.80053711 40.92749023 C16.13742959 40.92443348 18.4743239 40.92255672 20.81121826 40.92181396 C25.71739641 40.91720356 30.6234111 40.90275294 35.52954102 40.88061523 C41.8155007 40.85239475 48.10133117 40.84141057 54.38734818 40.83693314 C59.21721691 40.83277214 64.04705957 40.82294795 68.87691498 40.81105804 C71.194138 40.80536303 73.51136351 40.80060179 75.82859039 40.79679108 C79.07221346 40.7899044 82.31573557 40.77625876 85.55932617 40.76049805 C86.99499687 40.75882126 86.99499687 40.75882126 88.45967102 40.7571106 C93.03438456 40.72772155 97.34641617 40.53495045 101.84741211 39.59936523 C101.84741211 38.93936523 101.84741211 38.27936523 101.84741211 37.59936523 C102.83741211 37.59936523 103.82741211 37.59936523 104.84741211 37.59936523 C104.87206714 33.20280351 104.89025053 28.80627803 104.90234375 24.40966797 C104.90738332 22.91291605 104.91421498 21.41616908 104.92285156 19.91943359 C104.9349337 17.77236716 104.94064402 15.62536561 104.94506836 13.47827148 C104.95292358 11.53803101 104.95292358 11.53803101 104.9609375 9.55859375 C105.18738143 6.71284119 105.18738143 6.71284119 103.84741211 5.59936523 C102.37992251 5.50371401 100.90784327 5.47748214 99.4372406 5.47911072 C98.00897949 5.47704872 98.00897949 5.47704872 96.55186462 5.47494507 C95.49882645 5.47854034 94.44578827 5.48213562 93.36083984 5.48583984 C92.25854034 5.48569382 91.15624084 5.48554779 90.02053833 5.48539734 C86.35734119 5.48609702 82.69419417 5.49389199 79.03100586 5.50170898 C76.49894743 5.50357297 73.96688863 5.50499696 71.43482971 5.5059967 C65.43892962 5.50943177 59.44305121 5.51732255 53.44715983 5.52734619 C46.62260153 5.53850846 39.79804239 5.54401807 32.97347724 5.54904163 C18.93144547 5.55950519 4.88942978 5.57710393 -9.15258789 5.59936523 Z " fill="#FEFFFF" transform="translate(437.152587890625,39.400634765625)"/>
<path d="M0 0 C1.67542976 0.28604898 3.34385343 0.61781233 5 1 C5 4.3 5 7.6 5 11 C7.64 11 10.28 11 13 11 C12.97679687 10.37351562 12.95359375 9.74703125 12.9296875 9.1015625 C12.91164063 8.28429688 12.89359375 7.46703125 12.875 6.625 C12.85179687 5.81289063 12.82859375 5.00078125 12.8046875 4.1640625 C13 2 13 2 15 0 C16.32 0.33 17.64 0.66 19 1 C19.66 7.6 20.32 14.2 21 21 C21.598125 18.999375 22.19625 16.99875 22.8125 14.9375 C24.28679611 10.13160949 25.88149347 5.55478904 28 1 C30.31 1 32.62 1 35 1 C38.26456103 8.25181115 40.83107109 15.1140915 42 23 C43.65 22.67 45.3 22.34 47 22 C46.98839844 21.01257813 46.97679687 20.02515625 46.96484375 19.0078125 C46.95582031 17.72648437 46.94679688 16.44515625 46.9375 15.125 C46.92589844 13.84882812 46.91429687 12.57265625 46.90234375 11.2578125 C47 8 47 8 48 6 C46.68 5.67 45.36 5.34 44 5 C44 3.68 44 2.36 44 1 C48.29 1 52.58 1 57 1 C57.495 2.98 57.495 2.98 58 5 C57.01 5.33 56.02 5.66 55 6 C54.40801257 11.34902924 53.85812759 16.60884846 54 22 C55.65 22 57.3 22 59 22 C59.09087891 20.35451172 59.09087891 20.35451172 59.18359375 18.67578125 C59.26804498 17.22134346 59.35269066 15.76691695 59.4375 14.3125 C59.47681641 13.59126953 59.51613281 12.87003906 59.55664062 12.12695312 C59.78185678 8.33292718 60.12839305 4.71348508 61 1 C63.64 1 66.28 1 69 1 C70.98 5.95 72.96 10.9 75 16 C75.33 11.38 75.66 6.76 76 2 C78.475 1.505 78.475 1.505 81 1 C81 9.25 81 17.5 81 26 C78.69 26.66 76.38 27.32 74 28 C70.52720503 22.63657167 68.9332335 17.0663534 67 11 C66.67 16.28 66.34 21.56 66 27 C59.92671148 27.86761265 54.792329 28.04151587 48.75 27.75 C47.8528125 27.72292969 46.955625 27.69585937 46.03125 27.66796875 C45.17015625 27.62800781 44.3090625 27.58804688 43.421875 27.546875 C42.25543457 27.49805176 42.25543457 27.49805176 41.06542969 27.44824219 C38.49820007 26.89109874 37.55255644 26.09774785 36 24 C36 23.01 36 22.02 36 21 C32.04 21.495 32.04 21.495 28 22 C27.9071875 22.928125 27.9071875 22.928125 27.8125 23.875 C27 26 27 26 24.9375 27.3125 C20.94300731 28.24738127 18.03490272 27.73973216 14 27 C13 26 13 26 12.90234375 23.93359375 C12.91394531 23.10988281 12.92554688 22.28617188 12.9375 21.4375 C12.94652344 20.61121094 12.95554687 19.78492187 12.96484375 18.93359375 C12.97644531 18.29550781 12.98804688 17.65742187 13 17 C10.36 16.67 7.72 16.34 5 16 C5 19.3 5 22.6 5 26 C3.34385343 26.38218767 1.67542976 26.71395102 0 27 C-1.74545605 25.25454395 -1.1302316 22.83875783 -1.1328125 20.46875 C-1.13410156 19.34855469 -1.13539063 18.22835937 -1.13671875 17.07421875 C-1.13285156 15.89472656 -1.12898438 14.71523438 -1.125 13.5 C-1.12886719 12.32050781 -1.13273437 11.14101563 -1.13671875 9.92578125 C-1.13542969 8.80558594 -1.13414062 7.68539062 -1.1328125 6.53125 C-1.13168457 5.49548828 -1.13055664 4.45972656 -1.12939453 3.39257812 C-1 1 -1 1 0 0 Z M31 9 C30.34 10.98 29.68 12.96 29 15 C29.99 15.495 29.99 15.495 31 16 C31 15.01 31 14.02 31 13 C31.66 13 32.32 13 33 13 C33 11.68 33 10.36 33 9 C32.34 9 31.68 9 31 9 Z " fill="#FEFFFF" transform="translate(455,49)"/>
<path d="M0 0 C2.25023485 1.85313458 3.28173747 2.96723364 4.125 5.75 C3.75 8 3.75 8 3.125 9.75 C0.75 9.5 0.75 9.5 -1.875 8.75 C-2.16375 8.09 -2.4525 7.43 -2.75 6.75 C-3.12125 6.09 -3.4925 5.43 -3.875 4.75 C-7.43706661 3.93129815 -7.43706661 3.93129815 -10.875 3.75 C-12.25955084 11.52050316 -12.25955084 11.52050316 -9.875 18.75 C-8.885 19.08 -7.895 19.41 -6.875 19.75 C-4.95625164 18.32540725 -3.37799255 16.69035942 -1.69140625 15 C0.125 13.75 0.125 13.75 2.34765625 14.0625 C3.22744141 14.4028125 3.22744141 14.4028125 4.125 14.75 C3.56952078 18.08287535 2.97686489 20.8982464 1.125 23.75 C-4.12646974 25.61100964 -9.86162901 24.95588324 -14.875 22.75 C-17.67808316 19.05175974 -18.26368988 16.34483556 -18.1875 11.75 C-18.18363281 10.739375 -18.17976563 9.72875 -18.17578125 8.6875 C-17.86578725 5.66002616 -17.24256372 3.4611351 -15.875 0.75 C-11.02966644 -2.24270602 -5.11639739 -2.2245206 0 0 Z " fill="#FEFFFF" transform="translate(448.875,51.25)"/>
</svg>
